<svg version="1.1" id="Layer_1" xmlns="http://www.w3.org/2000/svg" xmlns:xlink="http://www.w3.org/1999/xlink" x="0px" y="0px"
	 width="100%" viewBox="0 0 500 500" enable-background="new 0 0 500 500" xml:space="preserve">
<path fill="#000000" opacity="1.000000" stroke="none" 
	d="
M235.000000,501.000000 
	C156.666687,501.000000 78.833374,501.000000 1.000042,501.000000 
	C1.000028,334.333405 1.000028,167.666779 1.000014,1.000131 
	C167.666565,1.000087 334.333130,1.000087 500.999756,1.000044 
	C500.999847,167.666519 500.999847,334.333038 500.999939,500.999786 
	C412.500000,501.000000 324.000000,501.000000 235.000000,501.000000 
M225.965500,268.282166 
	C223.654907,268.028168 221.344315,267.774139 218.290726,267.600464 
	C217.311310,267.373505 216.331879,267.146576 215.147842,266.872192 
	C239.051575,259.588135 262.592346,260.328491 286.079742,267.587585 
	C287.272949,272.199768 290.870209,269.218475 294.156555,269.766968 
	C299.431885,270.589539 304.707245,271.412140 310.000580,272.885254 
	C310.248535,273.447479 310.496460,274.009735 310.744415,274.571960 
	C311.170471,274.016663 311.596527,273.461365 312.839569,272.894073 
	C320.554321,274.333984 328.269073,275.773895 335.880859,277.817780 
	C335.542358,278.613586 335.203857,279.409393 334.865387,280.205231 
	C335.437653,280.421387 336.450745,280.912231 336.513763,280.811127 
	C337.126587,279.827454 337.580444,278.744720 338.867645,277.707703 
	C340.345490,277.834534 341.823364,277.961334 343.301208,278.088165 
	C343.379669,277.652039 343.458099,277.215912 343.536530,276.779785 
	C332.006622,272.811096 320.522919,268.699005 308.918762,264.960754 
	C305.420135,263.833679 304.043945,262.414978 304.137939,258.501801 
	C304.425171,246.540771 304.166748,234.567001 304.149414,222.598160 
	C304.130920,209.827621 304.145264,197.057068 304.145264,183.954575 
	C302.425171,183.954575 301.140564,183.954575 299.635406,183.820267 
	C299.635406,183.820267 299.377289,183.815033 299.252960,183.099075 
	C297.816010,181.722656 296.379089,180.346237 294.313232,178.980469 
	C293.894043,178.990891 293.474884,179.001312 292.815308,178.175903 
	C291.592834,178.053421 290.370331,177.930939 289.139557,177.807617 
	C289.139557,175.051559 289.139557,172.620453 289.139557,168.572067 
	C293.030273,171.602036 296.018585,173.929245 299.254059,176.619507 
	C299.468628,176.839340 299.729004,176.961838 300.731964,177.061310 
	C301.411438,177.155334 302.090942,177.249344 302.340912,177.989685 
	C302.986145,179.353806 303.631378,180.717911 304.276611,182.082016 
	C304.669861,181.833939 305.063110,181.585846 305.456360,181.337753 
	C304.549774,180.032196 303.643219,178.726624 302.843109,176.803421 
	C302.920227,176.181107 303.238129,175.107559 303.039642,175.001633 
	C295.699066,171.084244 291.820953,159.379349 281.597870,164.491837 
	C279.384125,161.610886 277.881134,158.806274 275.629120,156.875168 
	C267.162933,149.615356 258.459198,142.632156 249.829834,135.563232 
	C246.960342,133.212631 244.046738,130.915878 241.110443,128.560135 
	C238.253693,134.392136 235.618225,139.554428 233.199799,144.816498 
	C232.228333,146.930206 230.680771,149.418182 234.196701,150.997665 
	C234.477371,151.123764 234.473663,152.046097 234.478424,152.599487 
	C234.653168,172.904617 234.845078,193.209702 234.963120,213.515198 
	C235.030823,225.164581 234.975388,236.814697 234.975388,248.464478 
	C236.739365,249.514069 238.653458,251.777130 238.199738,252.454758 
	C237.250763,253.871979 235.053360,254.453247 232.775223,255.703583 
	C232.775223,234.805237 232.763428,215.334213 232.779495,195.863205 
	C232.789581,183.640030 232.808640,183.639481 221.923767,178.039917 
	C221.791428,177.971848 221.607224,178.004532 221.447235,177.990189 
	C221.161179,177.702286 220.875122,177.414383 220.589066,177.126480 
	C216.198074,181.886246 212.169235,187.063339 207.308243,191.281464 
	C202.965378,195.050003 200.147491,198.915771 201.122772,205.506470 
	C200.547470,206.469193 200.141785,207.605881 199.365570,208.362503 
	C196.887497,210.778046 197.614929,211.844864 200.366257,212.797287 
	C199.855179,214.637497 198.929245,216.470993 198.899261,218.319000 
	C198.677841,231.967133 198.548004,245.618515 198.603516,259.268005 
	C198.615784,262.287323 197.710510,263.340881 194.723694,264.311646 
	C182.409882,268.313965 170.260498,272.822144 158.050690,277.144379 
	C158.174789,277.562653 158.298874,277.980927 158.422974,278.399200 
	C173.882736,275.458282 189.342499,272.517365 205.590286,269.955261 
	C207.723557,269.585602 209.856812,269.215942 212.845673,269.003265 
	C214.869873,268.956543 216.894073,268.909821 219.751358,269.071503 
	C222.006180,268.976715 224.260986,268.881927 227.325821,268.928253 
	C228.819931,268.426086 230.314056,267.923920 231.808167,267.421753 
	C231.526978,266.846680 231.245789,266.271606 230.964600,265.696533 
	C229.504257,266.549622 228.043900,267.402740 225.965500,268.282166 
M262.587708,270.441284 
	C255.821396,270.441284 249.055084,270.441284 242.288773,270.441284 
	C242.309143,270.968201 242.329514,271.495148 242.349899,272.022064 
	C249.585281,272.022064 256.820679,272.022064 264.883484,272.048981 
	C267.910614,272.414337 270.937775,272.779724 273.964905,273.145111 
	C274.039185,272.561584 274.113464,271.978058 274.187744,271.394501 
	C270.603302,271.006927 267.018829,270.619354 262.587708,270.441284 
M315.360840,298.279907 
	C317.635071,298.279907 319.909302,298.279907 322.244141,298.279907 
	C321.350281,291.452545 316.123810,288.459869 307.948853,289.607513 
	C303.428955,290.241974 299.331757,291.581787 298.431976,296.832153 
	C297.552460,301.963959 300.856598,304.373657 304.692535,306.532471 
	C304.127625,306.916931 303.562683,307.301422 302.147888,307.829041 
	C300.769928,307.927246 299.391968,308.025452 297.960480,308.127472 
	C298.235046,314.243622 301.767609,316.356110 306.703552,317.106537 
	C314.569092,318.302338 320.245087,316.627197 322.303772,312.347351 
	C322.724060,311.473602 322.960419,310.467041 323.073853,309.497406 
	C323.711456,304.048584 321.619720,302.033875 313.818207,299.054169 
	C314.080292,298.828705 314.342407,298.603241 315.360840,298.279907 
M158.005692,312.483368 
	C158.005692,310.023834 158.005692,307.564301 158.005692,305.104797 
	C158.523865,305.072632 159.042053,305.040497 159.560226,305.008331 
	C160.770477,309.009460 161.980728,313.010590 163.157547,316.901154 
	C165.583710,316.901154 167.564560,316.901154 169.787750,316.901154 
	C170.962570,313.042633 172.131134,309.204620 173.299698,305.366577 
	C173.576401,305.419586 173.853088,305.472565 174.129776,305.525574 
	C174.129776,309.263092 174.129776,313.000610 174.129776,316.767365 
	C177.231873,316.767365 179.970917,316.767365 182.803680,316.767365 
	C182.803680,307.783997 182.803680,299.040253 182.803680,290.118591 
	C178.813354,290.118591 175.039459,290.118591 171.174454,290.118591 
	C169.914978,294.637878 168.680054,299.069061 167.445145,303.500214 
	C167.140945,303.448639 166.836761,303.397064 166.532578,303.345490 
	C165.309479,298.923309 164.086380,294.501129 162.908279,290.241638 
	C158.678436,290.241638 154.765839,290.241638 150.858978,290.241638 
	C150.858978,299.290985 150.858978,308.034546 150.858978,316.879517 
	C153.273056,316.879517 155.398346,316.879517 157.823334,316.879517 
	C157.887894,315.650909 157.946793,314.530365 158.005692,312.483368 
M258.765778,289.995361 
	C256.484680,289.995361 254.203552,289.995361 251.831696,289.995361 
	C251.831696,299.181488 251.831696,307.956085 251.831696,316.801605 
	C254.472733,316.801605 256.912109,316.801605 260.028931,316.801605 
	C260.028931,312.830261 260.028931,309.042633 260.028931,305.097931 
	C266.425476,309.306702 267.991058,319.799347 278.519043,316.523529 
	C278.519043,307.831329 278.519043,299.092712 278.519043,290.142578 
	C275.855225,290.142578 273.420044,290.142578 270.354980,290.142578 
	C270.354980,294.064697 270.354980,297.889679 270.354980,302.822296 
	C266.193909,297.973419 262.869415,294.099396 258.765778,289.995361 
M78.123253,315.357666 
	C78.123253,311.975677 78.123253,308.593689 78.123253,304.990662 
	C84.884071,308.896851 86.423828,319.806396 96.849884,316.556915 
	C96.849884,307.723114 96.849884,298.986206 96.849884,290.172058 
	C94.201286,290.172058 91.797615,290.172058 88.868767,290.172058 
	C88.868767,294.231903 88.868767,298.081940 88.868767,302.121399 
	C82.420013,297.976166 80.894791,287.237213 70.271019,290.346375 
	C70.271019,299.114777 70.271019,307.848358 70.271019,317.254150 
	C73.035477,316.916382 75.545311,316.609741 78.123253,315.357666 
M133.438263,311.121246 
	C134.406021,313.038971 135.373779,314.956726 136.261734,316.716309 
	C139.522995,316.716309 142.568253,316.716309 145.907639,316.716309 
	C143.967239,312.862000 142.204758,309.361115 140.374741,305.726074 
	C144.669479,303.456665 146.569366,299.815582 144.785233,295.998749 
	C143.600281,293.463715 140.370789,290.675140 137.718781,290.282837 
	C131.910477,289.423615 125.887329,290.016785 119.886108,290.016785 
	C119.886108,299.227051 119.886108,307.988861 119.886108,316.831055 
	C122.754692,316.831055 125.378654,316.831055 128.182816,316.831055 
	C128.327972,313.577087 128.465820,310.486786 128.603668,307.396515 
	C129.056458,307.140381 129.509232,306.884247 129.962006,306.628143 
	C131.003464,307.889801 132.044907,309.151489 133.438263,311.121246 
M415.287903,290.066711 
	C412.671356,290.066711 410.054810,290.066711 406.942322,290.066711 
	C406.942322,293.432587 406.942322,296.500458 406.942322,299.569702 
	C403.671082,299.569702 400.917206,299.569702 397.973602,299.569702 
	C397.821594,296.259430 397.680450,293.186371 397.540771,290.144592 
	C394.490295,290.144592 391.882874,290.144592 389.268738,290.144592 
	C389.268738,299.227661 389.268738,308.092438 389.268738,316.723419 
	C392.240479,316.723419 394.845337,316.723419 397.845490,316.723419 
	C397.845490,313.367126 397.845490,310.278839 397.845490,307.205444 
	C401.155975,307.205444 404.033020,307.205444 407.276489,307.205444 
	C407.276489,310.630798 407.276489,313.720215 407.276489,316.640015 
	C410.385223,316.640015 413.105347,316.640015 415.885101,316.640015 
	C415.885101,307.781464 415.885101,299.295990 415.287903,290.066711 
M171.604553,280.170746 
	C220.703079,278.108215 269.807556,276.703186 318.947693,279.035126 
	C268.454193,273.172852 217.994217,273.352295 167.534851,279.968811 
	C168.620026,280.044250 169.705185,280.119720 171.604553,280.170746 
M227.560928,314.743652 
	C230.756088,314.379089 236.206299,312.806183 236.767288,313.853088 
	C239.636536,319.207794 243.754410,316.256805 247.758804,316.956848 
	C244.642258,308.335999 241.834763,300.198853 238.658920,292.208069 
	C238.211578,291.082489 235.938400,290.018524 234.555740,290.073212 
	C232.030869,290.173126 227.932739,290.420532 227.300919,291.849152 
	C223.739761,299.901459 221.015015,308.323669 217.560730,317.844604 
	C221.529907,316.920532 224.364838,316.260559 227.560928,314.743652 
M339.524994,313.180664 
	C341.327087,313.300446 344.391479,312.863556 344.729095,313.629150 
	C347.156433,319.133789 351.635498,316.355408 355.790863,317.025146 
	C352.419617,307.759583 349.205505,298.925842 345.932739,289.930908 
	C343.277130,289.930908 340.770752,289.718109 338.328918,290.022675 
	C337.147308,290.170044 335.448517,291.039917 335.071899,292.006592 
	C331.898682,300.151398 328.977325,308.394379 325.862518,316.930389 
	C330.082947,316.653259 334.601013,318.848328 336.674622,313.337677 
	C336.770203,313.083710 337.914642,313.224426 339.524994,313.180664 
M214.161392,311.270966 
	C211.581238,304.161285 209.001068,297.051605 206.508743,290.183960 
	C202.699036,290.183960 199.435791,290.183960 196.103043,290.183960 
	C192.876221,299.075928 189.720016,307.773254 186.259323,317.309662 
	C189.849564,316.909637 193.512680,317.599670 195.385803,316.081390 
	C200.461044,311.967651 204.258881,311.819183 207.813171,316.863281 
	C210.516052,316.863281 213.158768,316.863281 216.151398,316.863281 
	C215.541229,315.089417 215.011993,313.550781 214.161392,311.270966 
M380.313538,296.951813 
	C386.745575,297.471893 383.126343,292.828735 384.242035,290.135254 
	C375.160492,290.135254 366.612183,290.135254 357.853851,290.135254 
	C357.853851,292.386475 357.853851,294.471893 357.853851,297.049438 
	C360.799500,297.049438 363.524841,297.049438 366.614166,297.049438 
	C366.614166,303.950500 366.614166,310.363403 366.614166,316.868591 
	C369.618683,316.868591 372.247620,316.868591 375.155243,316.868591 
	C375.155243,310.287048 375.155243,303.846375 375.155243,297.181976 
	C376.725647,297.095520 378.030090,297.023712 380.313538,296.951813 
M424.832947,317.022675 
	C426.954834,317.022675 429.076721,317.022675 431.280975,317.022675 
	C431.280975,307.792419 431.280975,298.965057 431.280975,290.116302 
	C428.290131,290.116302 425.676453,290.116302 422.799225,290.116302 
	C422.799225,298.597412 422.774963,306.883575 422.848694,315.168884 
	C422.854187,315.783020 423.564026,316.390869 424.832947,317.022675 
M108.454391,289.930511 
	C107.035202,290.014282 105.616020,290.098053 104.251114,290.178619 
	C104.251114,299.278778 104.251114,308.002472 104.251114,316.690186 
	C107.219971,316.690186 109.931786,316.690186 112.881584,316.690186 
	C112.881584,308.589996 112.749496,300.807129 112.949883,293.032867 
	C113.024765,290.127930 111.731148,289.650024 108.454391,289.930511 
M240.473083,271.363098 
	C236.946976,271.363098 233.420883,271.363098 229.894775,271.363098 
	C229.940430,271.988983 229.986069,272.614899 230.031708,273.240784 
	C233.313049,272.778473 236.594376,272.316162 240.473083,271.363098 
M324.294678,278.384766 
	C324.093933,279.074249 323.893188,279.763763 323.692444,280.453247 
	C325.381317,280.535004 327.070221,280.616760 328.759094,280.698517 
	C328.822296,280.089539 328.885498,279.480591 328.948700,278.871613 
	C327.632477,278.604431 326.316223,278.337250 324.294678,278.384766 
M272.311584,268.235840 
	C273.845093,268.509583 275.378632,268.783325 276.912140,269.057068 
	C276.970947,268.697723 277.029755,268.338409 277.088593,267.979065 
	C274.388611,267.245758 271.688629,266.512451 268.988647,265.779144 
	C268.864471,266.234924 268.740265,266.690674 268.616089,267.146454 
	C269.599701,267.462250 270.583313,267.778046 272.311584,268.235840 
M248.931915,267.451202 
	C251.235733,267.661469 253.539536,267.871704 255.843353,268.081970 
	C255.841324,267.730865 255.839294,267.379730 255.837280,267.028595 
	C253.726898,267.028595 251.616531,267.028595 248.931915,267.451202 
M290.008240,273.789795 
	C289.706512,273.217987 289.404785,272.646179 289.103058,272.074371 
	C288.593079,272.348022 288.083130,272.621643 287.573151,272.895264 
	C288.165100,273.245636 288.757019,273.596008 290.008240,273.789795 
M347.317383,280.658600 
	C347.354858,279.960602 347.392334,279.262604 347.429810,278.564606 
	C347.016113,278.687042 346.236053,278.863342 346.244934,278.923706 
	C346.342133,279.585236 346.562439,280.228638 347.317383,280.658600 
M280.672760,271.466125 
	C281.508789,271.894836 282.344788,272.323578 283.180817,272.752289 
	C283.324249,272.353363 283.467712,271.954437 283.611145,271.555511 
	C282.799286,271.395813 281.987457,271.236145 280.672760,271.466125 
M283.531708,268.333282 
	C283.224792,267.902283 282.986420,267.201416 282.595276,267.102051 
	C281.973145,266.944061 281.249146,267.187225 280.568268,267.260712 
	C280.567627,267.541565 280.566986,267.822418 280.566345,268.103271 
	C281.377441,268.220337 282.188568,268.337372 283.531708,268.333282 
M154.056168,279.645050 
	C154.464645,279.928131 154.873123,280.211243 155.281616,280.494354 
	C155.350357,280.095123 155.419098,279.695923 155.487823,279.296692 
	C155.029709,279.229248 154.571594,279.161774 154.056168,279.645050 
M216.841537,271.236206 
	C216.876556,271.706787 216.911575,272.177338 216.946594,272.647919 
	C217.351105,272.487213 217.755600,272.326508 218.160110,272.165802 
	C217.905548,271.802460 217.650986,271.439087 216.841537,271.236206 
M163.668930,279.774139 
	C163.292038,279.724640 162.915146,279.675140 162.538239,279.625641 
	C162.536362,279.894806 162.534470,280.163971 162.532593,280.433136 
	C162.910599,280.391113 163.288620,280.349060 163.668930,279.774139 
M213.374115,273.699158 
	C213.498260,273.437653 213.622391,273.176178 213.746536,272.914703 
	C213.495224,272.838043 213.243912,272.761414 212.992615,272.684753 
	C212.966507,273.043457 212.940384,273.402161 213.374115,273.699158 
M293.674774,272.959625 
	C293.918549,273.106659 294.162292,273.253662 294.406067,273.400696 
	C294.496277,273.148621 294.586487,272.896576 294.676727,272.644501 
	C294.314301,272.603668 293.951874,272.562805 293.674774,272.959625 
M206.244232,272.805328 
	C206.366272,272.971100 206.488297,273.136841 206.610336,273.302612 
	C206.584442,273.071381 206.558548,272.840179 206.244232,272.805328 
z"/>
<path fill="#F2F0F0" opacity="1.000000" stroke="none" 
	d="
M335.983826,277.213806 
	C328.269073,275.773895 320.554321,274.333984 312.238403,272.689270 
	C311.085663,272.401184 310.534119,272.317932 309.982574,272.234711 
	C304.707245,271.412140 299.431885,270.589539 293.794189,269.527710 
	C291.944275,268.595490 290.456696,267.902496 288.739563,267.113464 
	C288.509949,267.017365 288.018463,267.096283 287.718506,266.952972 
	C286.982117,266.785736 286.545715,266.761841 286.109314,266.737915 
	C262.592346,260.328491 239.051575,259.588135 215.147842,266.872192 
	C216.331879,267.146576 217.311310,267.373505 218.586136,267.891998 
	C218.893784,268.410034 218.906021,268.636566 218.918274,268.863098 
	C216.894073,268.909821 214.869873,268.956543 212.289673,268.614136 
	C209.423187,268.675446 207.112717,269.125916 204.802246,269.576416 
	C189.342499,272.517365 173.882736,275.458282 158.422974,278.399200 
	C158.298874,277.980927 158.174789,277.562653 158.050690,277.144379 
	C170.260498,272.822144 182.409882,268.313965 194.723694,264.311646 
	C197.710510,263.340881 198.615784,262.287323 198.603516,259.268005 
	C198.548004,245.618515 198.677841,231.967133 198.899261,218.319000 
	C198.929245,216.470993 199.855179,214.637497 200.849701,212.369873 
	C203.246506,210.612213 205.159866,209.281982 207.066879,208.423538 
	C207.060547,225.942017 207.060547,242.988708 207.060547,260.035370 
	C207.264008,260.033691 207.467468,260.031982 207.670929,260.030304 
	C207.670929,242.644363 207.670929,225.258423 207.792084,207.551086 
	C209.271805,206.076859 210.630371,204.924057 212.005035,204.254730 
	C212.021118,222.653519 212.021118,240.568802 212.021118,258.484100 
	C212.676407,258.486816 213.331696,258.489532 213.986984,258.492249 
	C213.986984,239.656158 213.986984,220.820084 214.136505,201.717010 
	C215.193619,200.636215 216.101212,199.822403 217.398895,199.204468 
	C217.886597,215.514572 217.982727,231.628815 218.084000,247.743011 
	C218.094452,249.405930 218.118134,251.069183 218.167770,252.731323 
	C218.210938,254.176193 218.299576,255.619705 218.368118,257.063843 
	C218.653641,257.038757 218.939178,257.013702 219.224701,256.988647 
	C219.224701,236.673859 219.224701,216.359070 219.224701,194.731598 
	C217.896133,196.714951 217.445312,197.387939 216.625031,198.013321 
	C212.468918,200.191330 208.738754,202.524094 204.857529,204.570358 
	C203.834213,205.109879 202.344376,204.764526 201.068756,204.825500 
	C200.147491,198.915771 202.965378,195.050003 207.308243,191.281464 
	C212.169235,187.063339 216.198074,181.886246 220.589066,177.126480 
	C220.875122,177.414383 221.161179,177.702286 221.447235,177.990189 
	C221.607224,178.004532 221.791428,177.971848 221.923767,178.039917 
	C232.808640,183.639481 232.789581,183.640030 232.779495,195.863205 
	C232.763428,215.334213 232.775223,234.805237 232.775223,255.703583 
	C235.053360,254.453247 237.250763,253.871979 238.199738,252.454758 
	C238.653458,251.777130 236.739365,249.514069 234.975388,248.464478 
	C234.975388,236.814697 235.030823,225.164581 234.963120,213.515198 
	C234.845078,193.209702 234.653168,172.904617 234.478424,152.599487 
	C234.473663,152.046097 234.477371,151.123764 234.196701,150.997665 
	C230.680771,149.418182 232.228333,146.930206 233.199799,144.816498 
	C235.618225,139.554428 238.253693,134.392136 241.110443,128.560135 
	C244.046738,130.915878 246.960342,133.212631 249.829834,135.563232 
	C258.459198,142.632156 267.162933,149.615356 275.629120,156.875168 
	C277.881134,158.806274 279.384125,161.610886 281.597870,164.491837 
	C291.820953,159.379349 295.699066,171.084244 303.039642,175.001633 
	C303.238129,175.107559 302.920227,176.181107 302.800598,177.154327 
	C302.758057,177.505234 302.770416,177.343353 302.770416,177.343353 
	C302.090942,177.249344 301.411438,177.155334 300.319824,176.765869 
	C299.607422,176.399109 299.307190,176.327789 299.006927,176.256470 
	C296.018585,173.929245 293.030273,171.602036 289.139557,168.572067 
	C289.139557,172.620453 289.139557,175.051559 289.139557,177.807617 
	C290.370331,177.930939 291.592834,178.053421 292.570709,178.832565 
	C292.189209,185.606827 291.954620,191.724106 291.933411,197.842102 
	C291.865997,217.282959 291.877136,236.724106 291.860901,256.165131 
	C291.859009,258.443207 291.353577,261.112823 295.769440,260.533966 
	C295.769440,234.679031 295.769440,208.802765 296.080505,182.922913 
	C296.597229,182.945633 296.802917,182.971939 297.022003,183.467499 
	C297.157288,187.927460 297.363007,191.917679 297.386963,195.908981 
	C297.509918,216.383133 297.546021,236.857941 297.752075,257.331146 
	C297.769257,259.037598 298.823029,260.733643 299.395172,262.434509 
	C299.883087,262.280609 300.370972,262.126678 300.858856,261.972748 
	C301.000214,261.518677 301.264709,261.064728 301.265289,260.610474 
	C301.296295,236.145401 301.323853,211.680237 301.254242,187.215363 
	C301.251160,186.127106 300.342682,185.041443 299.855957,183.954559 
	C301.140564,183.954575 302.425171,183.954575 304.145264,183.954575 
	C304.145264,197.057068 304.130920,209.827621 304.149414,222.598160 
	C304.166748,234.567001 304.425171,246.540771 304.137939,258.501801 
	C304.043945,262.414978 305.420135,263.833679 308.918762,264.960754 
	C320.522919,268.699005 332.006622,272.811096 343.536530,276.779785 
	C343.458099,277.215912 343.379669,277.652039 343.301208,278.088165 
	C341.823364,277.961334 340.345490,277.834534 338.267151,277.502167 
	C337.105713,277.269012 336.544769,277.241394 335.983826,277.213806 
M265.947418,242.252380 
	C268.167725,242.632797 269.329468,243.597748 269.061829,246.197067 
	C268.757019,249.157654 268.991333,252.173752 268.991333,255.165741 
	C269.353729,255.162048 269.716156,255.158356 270.078552,255.154663 
	C270.078552,251.225189 270.078552,247.295715 270.078552,242.672379 
	C277.766754,245.875946 272.174927,252.455170 275.163483,256.835358 
	C276.485443,257.103271 278.345459,257.480225 280.551208,257.927246 
	C280.551208,227.972229 280.564178,198.530945 280.494934,169.089844 
	C280.492584,168.103180 279.927734,166.776825 279.173187,166.184189 
	C268.069214,157.462585 256.901123,148.822220 245.702805,140.221802 
	C244.767975,139.503845 243.506195,139.211639 241.767456,138.444000 
	C242.259155,143.506775 242.671280,147.750092 242.798706,152.873215 
	C242.877350,156.249756 242.955994,159.626282 242.823273,163.918976 
	C242.823273,193.801483 242.823273,223.684006 242.823273,253.315414 
	C247.084702,253.315414 250.834351,253.315414 255.023590,253.315414 
	C255.023590,248.973358 255.023590,244.583389 255.023590,240.108734 
	C257.974060,240.816193 260.477600,241.416489 262.978912,242.941589 
	C262.978912,246.838028 262.978912,250.734451 262.978912,254.630890 
	C263.708008,254.625397 264.437134,254.619904 265.166229,254.614410 
	C265.166229,250.472443 265.166229,246.330490 265.947418,242.252380 
M239.927063,170.502106 
	C239.927063,165.063232 239.927063,159.624374 239.927063,154.185501 
	C239.735306,154.192230 239.543533,154.198959 239.351776,154.205688 
	C239.351776,184.767075 239.351776,215.328445 239.351776,245.889832 
	C239.544159,245.889481 239.736526,245.889130 239.928909,245.888779 
	C239.928909,221.092926 239.928909,196.297073 239.927063,170.502106 
M227.947876,242.480652 
	C227.947876,225.273636 227.947876,208.066620 227.947876,190.859619 
	C227.728271,190.862991 227.508682,190.866364 227.289078,190.869736 
	C227.289078,212.037415 227.289078,233.205093 227.289078,254.372757 
	C227.503540,254.375153 227.718018,254.377548 227.932480,254.379944 
	C227.932480,250.743500 227.932480,247.107056 227.947876,242.480652 
M204.046951,234.691528 
	C204.046951,243.275375 204.046951,251.859238 204.046951,260.443085 
	C204.251434,260.439880 204.455917,260.436676 204.660400,260.433441 
	C204.660400,249.904678 204.660400,239.375900 204.660400,228.847137 
	C204.454773,228.846909 204.249161,228.846695 204.043533,228.846466 
	C204.043533,230.482758 204.043533,232.119049 204.046951,234.691528 
z"/>
<path fill="#FCFAFA" opacity="1.000000" stroke="none" 
	d="
M158.005676,312.946594 
	C157.946793,314.530365 157.887894,315.650909 157.823334,316.879517 
	C155.398346,316.879517 153.273056,316.879517 150.858978,316.879517 
	C150.858978,308.034546 150.858978,299.290985 150.858978,290.241638 
	C154.765839,290.241638 158.678436,290.241638 162.908279,290.241638 
	C164.086380,294.501129 165.309479,298.923309 166.532578,303.345490 
	C166.836761,303.397064 167.140945,303.448639 167.445145,303.500214 
	C168.680054,299.069061 169.914978,294.637878 171.174454,290.118591 
	C175.039459,290.118591 178.813354,290.118591 182.803680,290.118591 
	C182.803680,299.040253 182.803680,307.783997 182.803680,316.767365 
	C179.970917,316.767365 177.231873,316.767365 174.129776,316.767365 
	C174.129776,313.000610 174.129776,309.263092 174.129776,305.525574 
	C173.853088,305.472565 173.576401,305.419586 173.299698,305.366577 
	C172.131134,309.204620 170.962570,313.042633 169.787750,316.901154 
	C167.564560,316.901154 165.583710,316.901154 163.157547,316.901154 
	C161.980728,313.010590 160.770477,309.009460 159.560226,305.008331 
	C159.042053,305.040497 158.523865,305.072632 158.005692,305.104797 
	C158.005692,307.564301 158.005692,310.023834 158.005676,312.946594 
z"/>
<path fill="#F8F6F6" opacity="1.000000" stroke="none" 
	d="
M259.155334,290.110352 
	C262.869415,294.099396 266.193909,297.973419 270.354980,302.822296 
	C270.354980,297.889679 270.354980,294.064697 270.354980,290.142578 
	C273.420044,290.142578 275.855225,290.142578 278.519043,290.142578 
	C278.519043,299.092712 278.519043,307.831329 278.519043,316.523529 
	C267.991058,319.799347 266.425476,309.306702 260.028931,305.097931 
	C260.028931,309.042633 260.028931,312.830261 260.028931,316.801605 
	C256.912109,316.801605 254.472733,316.801605 251.831696,316.801605 
	C251.831696,307.956085 251.831696,299.181488 251.831696,289.995361 
	C254.203552,289.995361 256.484680,289.995361 259.155334,290.110352 
z"/>
<path fill="#FBF9F9" opacity="1.000000" stroke="none" 
	d="
M78.089203,315.830383 
	C75.545311,316.609741 73.035477,316.916382 70.271019,317.254150 
	C70.271019,307.848358 70.271019,299.114777 70.271019,290.346375 
	C80.894791,287.237213 82.420013,297.976166 88.868767,302.121399 
	C88.868767,298.081940 88.868767,294.231903 88.868767,290.172058 
	C91.797615,290.172058 94.201286,290.172058 96.849884,290.172058 
	C96.849884,298.986206 96.849884,307.723114 96.849884,316.556915 
	C86.423828,319.806396 84.884071,308.896851 78.123253,304.990662 
	C78.123253,308.593689 78.123253,311.975677 78.089203,315.830383 
z"/>
<path fill="#FCFAFA" opacity="1.000000" stroke="none" 
	d="
M133.262314,310.767212 
	C132.044907,309.151489 131.003464,307.889801 129.962006,306.628143 
	C129.509232,306.884247 129.056458,307.140381 128.603668,307.396515 
	C128.465820,310.486786 128.327972,313.577087 128.182816,316.831055 
	C125.378654,316.831055 122.754692,316.831055 119.886108,316.831055 
	C119.886108,307.988861 119.886108,299.227051 119.886108,290.016785 
	C125.887329,290.016785 131.910477,289.423615 137.718781,290.282837 
	C140.370789,290.675140 143.600281,293.463715 144.785233,295.998749 
	C146.569366,299.815582 144.669479,303.456665 140.374741,305.726074 
	C142.204758,309.361115 143.967239,312.862000 145.907639,316.716309 
	C142.568253,316.716309 139.522995,316.716309 136.261734,316.716309 
	C135.373779,314.956726 134.406021,313.038971 133.262314,310.767212 
M136.172852,297.711029 
	C133.741043,296.997833 131.309235,296.284607 128.246964,295.386505 
	C128.391113,298.067291 128.465805,299.456329 128.628143,302.475189 
	C131.766678,300.888824 134.055191,299.732086 136.172852,297.711029 
z"/>
<path fill="#F8F6F6" opacity="1.000000" stroke="none" 
	d="
M415.586487,290.438629 
	C415.885101,299.295990 415.885101,307.781464 415.885101,316.640015 
	C413.105347,316.640015 410.385223,316.640015 407.276489,316.640015 
	C407.276489,313.720215 407.276489,310.630798 407.276489,307.205444 
	C404.033020,307.205444 401.155975,307.205444 397.845490,307.205444 
	C397.845490,310.278839 397.845490,313.367126 397.845490,316.723419 
	C394.845337,316.723419 392.240479,316.723419 389.268738,316.723419 
	C389.268738,308.092438 389.268738,299.227661 389.268738,290.144592 
	C391.882874,290.144592 394.490295,290.144592 397.540771,290.144592 
	C397.680450,293.186371 397.821594,296.259430 397.973602,299.569702 
	C400.917206,299.569702 403.671082,299.569702 406.942322,299.569702 
	C406.942322,296.500458 406.942322,293.432587 406.942322,290.066711 
	C410.054810,290.066711 412.671356,290.066711 415.586487,290.438629 
z"/>
<path fill="#F6F4F4" opacity="1.000000" stroke="none" 
	d="
M312.989136,299.677460 
	C321.619720,302.033875 323.711456,304.048584 323.073853,309.497406 
	C322.960419,310.467041 322.724060,311.473602 322.303772,312.347351 
	C320.245087,316.627197 314.569092,318.302338 306.703552,317.106537 
	C301.767609,316.356110 298.235046,314.243622 297.960480,308.127472 
	C299.391968,308.025452 300.769928,307.927246 302.966400,307.860229 
	C304.608826,308.259308 305.752930,308.399567 306.203369,309.032990 
	C308.644775,312.466614 311.313568,311.453217 314.062561,310.155060 
	C314.203033,309.604553 314.343506,309.054047 314.483978,308.503540 
	C311.314575,307.701324 308.145172,306.899078 304.975769,306.096863 
	C300.856598,304.373657 297.552460,301.963959 298.431976,296.832153 
	C299.331757,291.581787 303.428955,290.241974 307.948853,289.607513 
	C316.123810,288.459869 321.350281,291.452545 322.244141,298.279907 
	C319.909302,298.279907 317.635071,298.279907 314.779968,297.986084 
	C312.225830,294.469696 309.965454,295.122955 306.451569,297.680695 
	C309.235168,298.530884 311.112152,299.104187 312.989136,299.677460 
z"/>
<path fill="#F0EEEE" opacity="1.000000" stroke="none" 
	d="
M171.197449,280.182953 
	C169.705185,280.119720 168.620026,280.044250 167.534851,279.968811 
	C217.994217,273.352295 268.454193,273.172852 318.947693,279.035126 
	C269.807556,276.703186 220.703079,278.108215 171.197449,280.182953 
z"/>
<path fill="#F8F6F6" opacity="1.000000" stroke="none" 
	d="
M227.380341,315.172119 
	C224.364838,316.260559 221.529907,316.920532 217.560730,317.844604 
	C221.015015,308.323669 223.739761,299.901459 227.300919,291.849152 
	C227.932739,290.420532 232.030869,290.173126 234.555740,290.073212 
	C235.938400,290.018524 238.211578,291.082489 238.658920,292.208069 
	C241.834763,300.198853 244.642258,308.335999 247.758804,316.956848 
	C243.754410,316.256805 239.636536,319.207794 236.767288,313.853088 
	C236.206299,312.806183 230.756088,314.379089 227.380341,315.172119 
M234.033585,301.867218 
	C233.587677,300.767059 233.141754,299.666931 232.466354,298.000610 
	C231.499985,301.310760 230.729782,303.948975 229.911652,306.751343 
	C231.792786,306.751343 233.442078,306.751343 235.386810,306.751343 
	C234.916794,305.123901 234.558456,303.883209 234.033585,301.867218 
z"/>
<path fill="#F8F6F6" opacity="1.000000" stroke="none" 
	d="
M339.047791,313.181000 
	C337.914642,313.224426 336.770203,313.083710 336.674622,313.337677 
	C334.601013,318.848328 330.082947,316.653259 325.862518,316.930389 
	C328.977325,308.394379 331.898682,300.151398 335.071899,292.006592 
	C335.448517,291.039917 337.147308,290.170044 338.328918,290.022675 
	C340.770752,289.718109 343.277130,289.930908 345.932739,289.930908 
	C349.205505,298.925842 352.419617,307.759583 355.790863,317.025146 
	C351.635498,316.355408 347.156433,319.133789 344.729095,313.629150 
	C344.391479,312.863556 341.327087,313.300446 339.047791,313.181000 
M339.207092,302.017426 
	C338.810608,303.568878 338.414154,305.120331 337.960419,306.895782 
	C339.785248,306.895782 341.366699,306.895782 343.448822,306.895782 
	C342.536835,303.862518 341.718384,301.140289 340.659210,297.617462 
	C340.082581,299.456940 339.791473,300.385590 339.207092,302.017426 
z"/>
<path fill="#FBF9F9" opacity="1.000000" stroke="none" 
	d="
M214.322067,311.641541 
	C215.011993,313.550781 215.541229,315.089417 216.151398,316.863281 
	C213.158768,316.863281 210.516052,316.863281 207.813171,316.863281 
	C204.258881,311.819183 200.461044,311.967651 195.385803,316.081390 
	C193.512680,317.599670 189.849564,316.909637 186.259323,317.309662 
	C189.720016,307.773254 192.876221,299.075928 196.103043,290.183960 
	C199.435791,290.183960 202.699036,290.183960 206.508743,290.183960 
	C209.001068,297.051605 211.581238,304.161285 214.322067,311.641541 
M202.178406,300.730804 
	C201.982651,300.072876 201.786896,299.414917 201.182556,297.383667 
	C200.029495,301.380371 199.264511,304.031921 198.450775,306.852478 
	C200.624664,306.852478 202.173767,306.852478 203.977921,306.852478 
	C203.386307,304.846832 202.883759,303.143066 202.178406,300.730804 
z"/>
<path fill="#F6F4F4" opacity="1.000000" stroke="none" 
	d="
M379.824036,296.951843 
	C378.030090,297.023712 376.725647,297.095520 375.155243,297.181976 
	C375.155243,303.846375 375.155243,310.287048 375.155243,316.868591 
	C372.247620,316.868591 369.618683,316.868591 366.614166,316.868591 
	C366.614166,310.363403 366.614166,303.950500 366.614166,297.049438 
	C363.524841,297.049438 360.799500,297.049438 357.853851,297.049438 
	C357.853851,294.471893 357.853851,292.386475 357.853851,290.135254 
	C366.612183,290.135254 375.160492,290.135254 384.242035,290.135254 
	C383.126343,292.828735 386.745575,297.471893 379.824036,296.951843 
z"/>
<path fill="#0D0D0D" opacity="1.000000" stroke="none" 
	d="
M295.769440,182.926483 
	C295.769440,208.802765 295.769440,234.679031 295.769440,260.533966 
	C291.353577,261.112823 291.859009,258.443207 291.860901,256.165131 
	C291.877136,236.724106 291.865997,217.282959 291.933411,197.842102 
	C291.954620,191.724106 292.189209,185.606827 292.690918,179.250488 
	C293.474884,179.001312 293.894043,178.990891 294.631866,179.328979 
	C295.223480,180.760498 295.496460,181.843491 295.769440,182.926483 
z"/>
<path fill="#141313" opacity="1.000000" stroke="none" 
	d="
M299.745667,183.887421 
	C300.342682,185.041443 301.251160,186.127106 301.254242,187.215363 
	C301.323853,211.680237 301.296295,236.145401 301.265289,260.610474 
	C301.264709,261.064728 301.000214,261.518677 300.858856,261.972748 
	C300.370972,262.126678 299.883087,262.280609 299.395172,262.434509 
	C298.823029,260.733643 297.769257,259.037598 297.752075,257.331146 
	C297.546021,236.857941 297.509918,216.383133 297.386963,195.908981 
	C297.363007,191.917679 297.157288,187.927460 297.311035,183.597107 
	C298.183563,183.443314 298.780426,183.629166 299.377289,183.815033 
	C299.377289,183.815033 299.635406,183.820267 299.745667,183.887421 
z"/>
<path fill="#F2F0F0" opacity="1.000000" stroke="none" 
	d="
M424.389709,317.012146 
	C423.564026,316.390869 422.854187,315.783020 422.848694,315.168884 
	C422.774963,306.883575 422.799225,298.597412 422.799225,290.116302 
	C425.676453,290.116302 428.290131,290.116302 431.280975,290.116302 
	C431.280975,298.965057 431.280975,307.792419 431.280975,317.022675 
	C429.076721,317.022675 426.954834,317.022675 424.389709,317.012146 
z"/>
<path fill="#F8F6F6" opacity="1.000000" stroke="none" 
	d="
M108.927391,289.930542 
	C111.731148,289.650024 113.024765,290.127930 112.949883,293.032867 
	C112.749496,300.807129 112.881584,308.589996 112.881584,316.690186 
	C109.931786,316.690186 107.219971,316.690186 104.251114,316.690186 
	C104.251114,308.002472 104.251114,299.278778 104.251114,290.178619 
	C105.616020,290.098053 107.035202,290.014282 108.927391,289.930542 
z"/>
<path fill="#1C1C1C" opacity="1.000000" stroke="none" 
	d="
M207.073212,207.951736 
	C205.159866,209.281982 203.246506,210.612213 201.037628,212.030457 
	C197.614929,211.844864 196.887497,210.778046 199.365570,208.362503 
	C200.141785,207.605881 200.547470,206.469193 201.095764,205.165985 
	C202.344376,204.764526 203.834213,205.109879 204.857529,204.570358 
	C208.738754,202.524094 212.468918,200.191330 216.621796,198.250336 
	C216.988007,198.534988 217.008804,199.008606 217.008804,199.008606 
	C216.101212,199.822403 215.193619,200.636215 213.887360,201.833054 
	C212.988770,202.734467 212.488846,203.252869 211.988937,203.771255 
	C210.630371,204.924057 209.271805,206.076859 207.631470,207.486511 
	C207.349701,207.743362 207.073212,207.951736 207.073212,207.951736 
z"/>
<path fill="#A5A4A4" opacity="1.000000" stroke="none" 
	d="
M264.056061,272.022064 
	C256.820679,272.022064 249.585281,272.022064 242.349899,272.022064 
	C242.329514,271.495148 242.309143,270.968201 242.288773,270.441284 
	C249.055084,270.441284 255.821396,270.441284 263.224243,270.599365 
	C263.925903,271.179016 263.990997,271.600525 264.056061,272.022064 
z"/>
<path fill="#1C1C1C" opacity="1.000000" stroke="none" 
	d="
M304.834167,306.314667 
	C308.145172,306.899078 311.314575,307.701324 314.483978,308.503540 
	C314.343506,309.054047 314.203033,309.604553 314.062561,310.155060 
	C311.313568,311.453217 308.644775,312.466614 306.203369,309.032990 
	C305.752930,308.399567 304.608826,308.259308 303.391357,307.788666 
	C303.562683,307.301422 304.127625,306.916931 304.834167,306.314667 
z"/>
<path fill="#0F0F0F" opacity="1.000000" stroke="none" 
	d="
M264.469788,272.035522 
	C263.990997,271.600525 263.925903,271.179016 263.647583,270.494629 
	C267.018829,270.619354 270.603302,271.006927 274.187744,271.394501 
	C274.113464,271.978058 274.039185,272.561584 273.964905,273.145111 
	C270.937775,272.779724 267.910614,272.414337 264.469788,272.035522 
z"/>
<path fill="#0F0F0F" opacity="1.000000" stroke="none" 
	d="
M240.174393,271.608459 
	C236.594376,272.316162 233.313049,272.778473 230.031708,273.240784 
	C229.986069,272.614899 229.940430,271.988983 229.894775,271.363098 
	C233.420883,271.363098 236.946976,271.363098 240.174393,271.608459 
z"/>
<path fill="#0F0F0F" opacity="1.000000" stroke="none" 
	d="
M288.969147,267.209534 
	C290.456696,267.902496 291.944275,268.595490 293.373291,269.583313 
	C290.870209,269.218475 287.272949,272.199768 286.094543,267.162750 
	C286.545715,266.761841 286.982117,266.785736 287.796570,267.101288 
	C288.174622,267.392914 288.602264,267.525635 288.602264,267.525635 
	C288.602264,267.525635 288.969147,267.209534 288.969147,267.209534 
z"/>
<path fill="#0F0F0F" opacity="1.000000" stroke="none" 
	d="
M324.647339,278.227417 
	C326.316223,278.337250 327.632477,278.604431 328.948700,278.871613 
	C328.885498,279.480591 328.822296,280.089539 328.759094,280.698517 
	C327.070221,280.616760 325.381317,280.535004 323.692444,280.453247 
	C323.893188,279.763763 324.093933,279.074249 324.647339,278.227417 
z"/>
<path fill="#908F8F" opacity="1.000000" stroke="none" 
	d="
M205.196259,269.765839 
	C207.112717,269.125916 209.423187,268.675446 211.861877,268.535645 
	C209.856812,269.215942 207.723557,269.585602 205.196259,269.765839 
z"/>
<path fill="#0F0F0F" opacity="1.000000" stroke="none" 
	d="
M271.939270,268.164856 
	C270.583313,267.778046 269.599701,267.462250 268.616089,267.146454 
	C268.740265,266.690674 268.864471,266.234924 268.988647,265.779144 
	C271.688629,266.512451 274.388611,267.245758 277.088593,267.979065 
	C277.029755,268.338409 276.970947,268.697723 276.912140,269.057068 
	C275.378632,268.783325 273.845093,268.509583 271.939270,268.164856 
z"/>
<path fill="#908F8F" opacity="1.000000" stroke="none" 
	d="
M219.334808,268.967316 
	C218.906021,268.636566 218.893784,268.410034 218.957642,267.851807 
	C221.344315,267.774139 223.654907,268.028168 226.258987,268.401611 
	C226.552475,268.521057 226.515808,268.787109 226.515808,268.787109 
	C224.260986,268.881927 222.006180,268.976715 219.334808,268.967316 
z"/>
<path fill="#0F0F0F" opacity="1.000000" stroke="none" 
	d="
M226.920807,268.857666 
	C226.515808,268.787109 226.552475,268.521057 226.568024,268.388428 
	C228.043900,267.402740 229.504257,266.549622 230.964600,265.696533 
	C231.245789,266.271606 231.526978,266.846680 231.808167,267.421753 
	C230.314056,267.923920 228.819931,268.426086 226.920807,268.857666 
z"/>
<path fill="#0F0F0F" opacity="1.000000" stroke="none" 
	d="
M335.932343,277.515808 
	C336.544769,277.241394 337.105713,277.269012 337.873108,277.493408 
	C337.580444,278.744720 337.126587,279.827454 336.513763,280.811127 
	C336.450745,280.912231 335.437653,280.421387 334.865387,280.205231 
	C335.203857,279.409393 335.542358,278.613586 335.932343,277.515808 
z"/>
<path fill="#1C1C1C" opacity="1.000000" stroke="none" 
	d="
M299.315125,183.457062 
	C298.780426,183.629166 298.183563,183.443314 297.297668,183.127853 
	C296.802917,182.971939 296.597229,182.945633 296.080505,182.922913 
	C295.496460,181.843491 295.223480,180.760498 294.946320,179.323669 
	C296.379089,180.346237 297.816010,181.722656 299.315125,183.457062 
z"/>
<path fill="#0F0F0F" opacity="1.000000" stroke="none" 
	d="
M249.219025,267.239899 
	C251.616531,267.028595 253.726898,267.028595 255.837280,267.028595 
	C255.839294,267.379730 255.841324,267.730865 255.843353,268.081970 
	C253.539536,267.871704 251.235733,267.661469 249.219025,267.239899 
z"/>
<path fill="#0F0F0F" opacity="1.000000" stroke="none" 
	d="
M289.678589,273.868103 
	C288.757019,273.596008 288.165100,273.245636 287.573151,272.895264 
	C288.083130,272.621643 288.593079,272.348022 289.103058,272.074371 
	C289.404785,272.646179 289.706512,273.217987 289.678589,273.868103 
z"/>
<path fill="#0D0D0D" opacity="1.000000" stroke="none" 
	d="
M302.555664,177.666519 
	C302.770416,177.343353 302.758057,177.505234 302.747345,177.463150 
	C303.643219,178.726624 304.549774,180.032196 305.456360,181.337753 
	C305.063110,181.585846 304.669861,181.833939 304.276611,182.082016 
	C303.631378,180.717911 302.986145,179.353806 302.555664,177.666519 
z"/>
<path fill="#0F0F0F" opacity="1.000000" stroke="none" 
	d="
M347.033325,280.767792 
	C346.562439,280.228638 346.342133,279.585236 346.244934,278.923706 
	C346.236053,278.863342 347.016113,278.687042 347.429810,278.564606 
	C347.392334,279.262604 347.354858,279.960602 347.033325,280.767792 
z"/>
<path fill="#0F0F0F" opacity="1.000000" stroke="none" 
	d="
M280.924194,271.271301 
	C281.987457,271.236145 282.799286,271.395813 283.611145,271.555511 
	C283.467712,271.954437 283.324249,272.353363 283.180817,272.752289 
	C282.344788,272.323578 281.508789,271.894836 280.924194,271.271301 
z"/>
<path fill="#0F0F0F" opacity="1.000000" stroke="none" 
	d="
M283.265686,268.393860 
	C282.188568,268.337372 281.377441,268.220337 280.566345,268.103271 
	C280.566986,267.822418 280.567627,267.541565 280.568268,267.260712 
	C281.249146,267.187225 281.973145,266.944061 282.595276,267.102051 
	C282.986420,267.201416 283.224792,267.902283 283.265686,268.393860 
z"/>
<path fill="#0F0F0F" opacity="1.000000" stroke="none" 
	d="
M309.991577,272.559998 
	C310.534119,272.317932 311.085663,272.401184 311.829895,272.695251 
	C311.596527,273.461365 311.170471,274.016663 310.744415,274.571960 
	C310.496460,274.009735 310.248535,273.447479 309.991577,272.559998 
z"/>
<path fill="#0F0F0F" opacity="1.000000" stroke="none" 
	d="
M154.084824,279.369690 
	C154.571594,279.161774 155.029709,279.229248 155.487823,279.296692 
	C155.419098,279.695923 155.350357,280.095123 155.281616,280.494354 
	C154.873123,280.211243 154.464645,279.928131 154.084824,279.369690 
z"/>
<path fill="#0F0F0F" opacity="1.000000" stroke="none" 
	d="
M217.118988,271.155975 
	C217.650986,271.439087 217.905548,271.802460 218.160110,272.165802 
	C217.755600,272.326508 217.351105,272.487213 216.946594,272.647919 
	C216.911575,272.177338 216.876556,271.706787 217.118988,271.155975 
z"/>
<path fill="#0F0F0F" opacity="1.000000" stroke="none" 
	d="
M163.667786,280.040588 
	C163.288620,280.349060 162.910599,280.391113 162.532593,280.433136 
	C162.534470,280.163971 162.536362,279.894806 162.538239,279.625610 
	C162.915146,279.675140 163.292038,279.724640 163.667786,280.040588 
z"/>
<path fill="#0F0F0F" opacity="1.000000" stroke="none" 
	d="
M213.144196,273.730011 
	C212.940384,273.402161 212.966507,273.043457 212.992615,272.684753 
	C213.243912,272.761414 213.495224,272.838043 213.746521,272.914673 
	C213.622391,273.176178 213.498260,273.437653 213.144196,273.730011 
z"/>
<path fill="#0F0F0F" opacity="1.000000" stroke="none" 
	d="
M293.632111,272.740784 
	C293.951874,272.562805 294.314301,272.603668 294.676727,272.644501 
	C294.586487,272.896576 294.496277,273.148621 294.406067,273.400696 
	C294.162292,273.253662 293.918549,273.106659 293.632111,272.740784 
z"/>
<path fill="#0F0F0F" opacity="1.000000" stroke="none" 
	d="
M206.388443,272.707153 
	C206.558548,272.840179 206.584442,273.071381 206.610336,273.302612 
	C206.488297,273.136841 206.366272,272.971100 206.388443,272.707153 
z"/>
<path fill="#0D0D0D" opacity="1.000000" stroke="none" 
	d="
M299.130493,176.437988 
	C299.307190,176.327789 299.607422,176.399109 299.971436,176.728699 
	C299.729004,176.961838 299.468628,176.839340 299.130493,176.437988 
z"/>
<path fill="#0D0D0D" opacity="1.000000" stroke="none" 
	d="
M243.083405,151.993423 
	C242.671280,147.750092 242.259155,143.506775 241.767456,138.444000 
	C243.506195,139.211639 244.767975,139.503845 245.702805,140.221802 
	C256.901123,148.822220 268.069214,157.462585 279.173187,166.184189 
	C279.927734,166.776825 280.492584,168.103180 280.494934,169.089844 
	C280.564178,198.530945 280.551208,227.972229 280.551208,257.927246 
	C278.345459,257.480225 276.485443,257.103271 275.163483,256.835358 
	C272.174927,252.455170 277.766754,245.875946 270.078552,242.672379 
	C270.078552,247.295715 270.078552,251.225189 270.078552,255.154663 
	C269.716156,255.158356 269.353729,255.162048 268.991333,255.165741 
	C268.991333,252.173752 268.757019,249.157654 269.061829,246.197067 
	C269.329468,243.597748 268.167725,242.632797 265.197449,242.147812 
	C263.958740,242.034424 263.469940,242.025604 262.981171,242.016785 
	C260.477600,241.416489 257.974060,240.816193 255.023590,240.108734 
	C255.023590,244.583389 255.023590,248.973358 255.023590,253.315414 
	C250.834351,253.315414 247.084702,253.315414 242.823273,253.315414 
	C242.823273,223.684006 242.823273,193.801483 243.317566,163.371826 
	C245.240936,159.101807 246.614471,155.382675 243.083405,151.993423 
M267.241028,212.052811 
	C266.881012,211.999680 266.520966,211.946548 265.640991,211.343094 
	C264.016235,212.717972 260.053101,205.799118 260.069763,213.541534 
	C260.054260,213.748276 260.038788,213.955032 259.331299,214.086975 
	C259.862762,215.435776 260.394226,216.784592 261.322357,218.651062 
	C262.394012,218.816605 263.465668,218.982147 264.954926,219.734680 
	C265.797180,220.170410 266.639404,220.606140 268.202362,221.414764 
	C267.790039,219.738464 267.544586,218.740631 267.780579,217.031204 
	C267.957642,216.806122 268.134735,216.581055 268.856354,216.041626 
	C269.807007,215.490509 270.757660,214.939407 272.189117,214.109558 
	C270.429779,213.322388 269.105896,212.730026 267.241028,212.052811 
M260.322937,186.990021 
	C259.498077,187.449570 258.673187,187.909119 257.848297,188.368668 
	C258.542328,189.267700 259.236389,190.166748 260.378296,191.548111 
	C261.927826,192.313675 263.477356,193.079239 265.570587,194.208221 
	C266.371094,194.420181 267.171570,194.632141 268.548981,195.201294 
	C269.690186,196.145920 270.831360,197.090546 272.459106,198.437927 
	C272.702606,196.770874 272.831329,195.889725 273.475433,194.707275 
	C273.221741,194.104538 272.968048,193.501801 272.996399,192.319977 
	C273.061462,191.895538 273.126556,191.471085 273.649414,190.965790 
	C273.878052,190.794235 274.106659,190.622681 274.335297,190.451126 
	C273.918152,190.292862 273.500977,190.134598 272.812927,189.382889 
	C271.564911,188.602371 270.316895,187.821869 268.749664,186.849457 
	C268.749664,186.849457 268.381836,186.907898 268.112030,186.266891 
	C266.396790,185.209030 264.681549,184.151169 262.511108,182.475235 
	C261.672394,182.503922 260.833679,182.532608 259.994965,182.561279 
	C260.387817,184.027618 260.780670,185.493973 260.322937,186.990021 
M264.853851,198.379288 
	C264.258362,197.937485 263.662903,197.495697 262.407990,196.882660 
	C259.750214,196.262650 257.314697,193.672577 253.551895,194.863174 
	C255.688843,196.871826 256.858673,197.971420 257.462524,199.457901 
	C257.482452,200.945114 256.971313,203.395264 257.615509,203.750549 
	C260.212799,205.182953 263.166718,205.968674 266.503601,207.445923 
	C268.406647,208.662170 270.309723,209.878403 271.091858,210.378281 
	C272.705017,208.453568 273.789246,207.532852 274.360016,206.361847 
	C274.823425,205.411072 274.972260,203.261169 274.743256,203.184280 
	C272.928528,202.575150 270.989899,202.335144 268.902649,201.398376 
	C268.824219,200.997696 268.745819,200.597000 268.740082,199.810165 
	C268.537781,199.913574 268.335449,200.016983 267.565369,200.004883 
	C266.734375,199.640472 265.903351,199.276062 264.853851,198.379288 
M264.586212,164.436539 
	C261.518036,162.016663 258.449860,159.596786 255.381668,157.176910 
	C255.023636,157.475372 254.665588,157.773834 254.307556,158.072281 
	C254.859787,159.067627 255.467957,160.036575 255.952881,161.063675 
	C257.035217,163.356079 258.056091,165.677505 258.518585,168.167755 
	C257.097809,168.245468 255.677032,168.323196 254.046005,168.412430 
	C253.675400,171.480179 254.486282,173.304489 258.512817,171.497101 
	C258.759766,172.451096 259.019318,173.453934 259.412811,174.974197 
	C259.917053,173.589661 260.226898,172.738907 260.261688,172.643402 
	C261.050720,173.927887 262.027618,175.518143 263.297577,177.638458 
	C265.791504,179.154953 268.285431,180.671448 270.977264,182.721207 
	C271.470520,182.936005 271.963806,183.150818 272.457062,183.365616 
	C272.026276,182.851364 271.595459,182.337112 270.998535,181.029755 
	C270.654266,178.260712 270.309998,175.491684 270.639801,173.013901 
	C271.383423,173.006882 272.749756,173.122635 272.778900,172.974747 
	C273.383606,169.907990 271.861633,168.366013 268.618134,167.936737 
	C268.618134,167.936737 268.318970,167.980209 268.134918,167.303589 
	C267.093903,166.519470 266.052887,165.735336 264.586212,164.436539 
M244.929092,218.385223 
	C244.929092,208.477081 244.929092,198.568954 244.929092,188.660812 
	C244.708557,188.662613 244.488007,188.664429 244.267471,188.666229 
	C244.267471,201.188339 244.267471,213.710464 244.267471,226.232574 
	C244.489044,226.233795 244.710602,226.235001 244.932175,226.236206 
	C244.932175,223.937653 244.932175,221.639114 244.929092,218.385223 
M265.703430,237.436539 
	C265.324799,236.755096 265.084778,235.635895 264.544525,235.464783 
	C261.530426,234.510147 258.443634,233.785049 255.381699,232.981461 
	C255.051575,233.294479 254.721451,233.607513 254.391327,233.920532 
	C255.344910,234.959824 256.135101,236.602249 257.285797,236.913940 
	C259.748657,237.581085 262.397888,237.560181 265.703430,237.436539 
M262.725769,231.877869 
	C264.850647,232.292465 266.975494,232.707062 269.100372,233.121658 
	C269.289337,232.363098 269.478271,231.604538 269.667236,230.845963 
	C265.947266,229.739288 262.227295,228.632599 258.507324,227.525909 
	C258.256989,228.111893 258.006653,228.697891 257.756317,229.283875 
	C259.143829,230.109222 260.531342,230.934555 262.725769,231.877869 
M257.035400,188.841156 
	C256.510773,187.627625 255.986145,186.414078 255.461517,185.200546 
	C254.918686,185.544876 254.375854,185.889206 253.833023,186.233521 
	C254.789551,187.300797 255.746078,188.368088 257.035400,188.841156 
M262.932098,223.523865 
	C261.964172,223.776703 260.996216,224.029526 260.028290,224.282364 
	C260.563995,224.916626 261.099731,225.550903 261.635406,226.185150 
	C262.118530,225.560486 262.601654,224.935837 262.932098,223.523865 
M272.511505,178.597458 
	C272.451538,178.828827 272.391571,179.060196 272.331635,179.291565 
	C272.478485,179.142395 272.625366,178.993225 272.511505,178.597458 
z"/>
<path fill="#908F8F" opacity="1.000000" stroke="none" 
	d="
M217.398895,199.204468 
	C217.008804,199.008606 216.988007,198.534988 216.991241,198.297974 
	C217.445312,197.387939 217.896133,196.714951 219.224701,194.731598 
	C219.224701,216.359070 219.224701,236.673859 219.224701,256.988647 
	C218.939178,257.013702 218.653641,257.038757 218.368118,257.063843 
	C218.299576,255.619705 218.210938,254.176193 218.167770,252.731323 
	C218.118134,251.069183 218.094452,249.405930 218.084000,247.743011 
	C217.982727,231.628815 217.886597,215.514572 217.398895,199.204468 
z"/>
<path fill="#A5A4A4" opacity="1.000000" stroke="none" 
	d="
M212.005035,204.254730 
	C212.488846,203.252869 212.988770,202.734467 213.737823,202.100037 
	C213.986984,220.820084 213.986984,239.656158 213.986984,258.492249 
	C213.331696,258.489532 212.676407,258.486816 212.021118,258.484100 
	C212.021118,240.568802 212.021118,222.653519 212.005035,204.254730 
z"/>
<path fill="#A5A4A4" opacity="1.000000" stroke="none" 
	d="
M239.927979,171.001663 
	C239.928909,196.297073 239.928909,221.092926 239.928909,245.888779 
	C239.736526,245.889130 239.544159,245.889481 239.351776,245.889832 
	C239.351776,215.328445 239.351776,184.767075 239.351776,154.205688 
	C239.543533,154.198959 239.735306,154.192230 239.927063,154.185501 
	C239.927063,159.624374 239.927063,165.063232 239.927979,171.001663 
z"/>
<path fill="#3B3A3A" opacity="1.000000" stroke="none" 
	d="
M227.940186,242.975632 
	C227.932480,247.107056 227.932480,250.743500 227.932480,254.379944 
	C227.718018,254.377548 227.503540,254.375153 227.289078,254.372757 
	C227.289078,233.205093 227.289078,212.037415 227.289078,190.869736 
	C227.508682,190.866364 227.728271,190.862991 227.947876,190.859619 
	C227.947876,208.066620 227.947876,225.273636 227.940186,242.975632 
z"/>
<path fill="#605F5F" opacity="1.000000" stroke="none" 
	d="
M207.066879,208.423538 
	C207.073212,207.951736 207.349701,207.743362 207.510315,207.807922 
	C207.670929,225.258423 207.670929,242.644363 207.670929,260.030304 
	C207.467468,260.031982 207.264008,260.033691 207.060547,260.035370 
	C207.060547,242.988708 207.060547,225.942017 207.066879,208.423538 
z"/>
<path fill="#747373" opacity="1.000000" stroke="none" 
	d="
M204.045242,234.223434 
	C204.043533,232.119049 204.043533,230.482758 204.043533,228.846466 
	C204.249161,228.846695 204.454773,228.846909 204.660400,228.847137 
	C204.660400,239.375900 204.660400,249.904678 204.660400,260.433441 
	C204.455917,260.436676 204.251434,260.439880 204.046951,260.443085 
	C204.046951,251.859238 204.046951,243.275375 204.045242,234.223434 
z"/>
<path fill="#747373" opacity="1.000000" stroke="none" 
	d="
M262.980042,242.479187 
	C263.469940,242.025604 263.958740,242.034424 264.806885,242.115891 
	C265.166229,246.330490 265.166229,250.472443 265.166229,254.614410 
	C264.437134,254.619904 263.708008,254.625397 262.978912,254.630890 
	C262.978912,250.734451 262.978912,246.838028 262.980042,242.479187 
z"/>
<path fill="#1C1C1C" opacity="1.000000" stroke="none" 
	d="
M242.941055,152.433319 
	C246.614471,155.382675 245.240936,159.101807 243.423248,162.913742 
	C242.955994,159.626282 242.877350,156.249756 242.941055,152.433319 
z"/>
<path fill="#000000" opacity="1.000000" stroke="none" 
	d="
M288.739563,267.113464 
	C288.969147,267.209534 288.602264,267.525635 288.602264,267.525635 
	C288.602264,267.525635 288.174622,267.392914 288.096558,267.244598 
	C288.018463,267.096283 288.509949,267.017365 288.739563,267.113464 
z"/>
<path fill="#1C1C1C" opacity="1.000000" stroke="none" 
	d="
M136.258286,298.143188 
	C134.055191,299.732086 131.766678,300.888824 128.628143,302.475189 
	C128.465805,299.456329 128.391113,298.067291 128.246964,295.386505 
	C131.309235,296.284607 133.741043,296.997833 136.258286,298.143188 
z"/>
<path fill="#000000" opacity="1.000000" stroke="none" 
	d="
M313.403687,299.365814 
	C311.112152,299.104187 309.235168,298.530884 306.451569,297.680695 
	C309.965454,295.122955 312.225830,294.469696 314.401794,298.034973 
	C314.342407,298.603241 314.080292,298.828705 313.403687,299.365814 
z"/>
<path fill="#141313" opacity="1.000000" stroke="none" 
	d="
M234.116852,302.254852 
	C234.558456,303.883209 234.916794,305.123901 235.386810,306.751343 
	C233.442078,306.751343 231.792786,306.751343 229.911652,306.751343 
	C230.729782,303.948975 231.499985,301.310760 232.466354,298.000610 
	C233.141754,299.666931 233.587677,300.767059 234.116852,302.254852 
z"/>
<path fill="#141313" opacity="1.000000" stroke="none" 
	d="
M339.353729,301.665833 
	C339.791473,300.385590 340.082581,299.456940 340.659210,297.617462 
	C341.718384,301.140289 342.536835,303.862518 343.448822,306.895782 
	C341.366699,306.895782 339.785248,306.895782 337.960419,306.895782 
	C338.414154,305.120331 338.810608,303.568878 339.353729,301.665833 
z"/>
<path fill="#1C1C1C" opacity="1.000000" stroke="none" 
	d="
M202.279816,301.085083 
	C202.883759,303.143066 203.386307,304.846832 203.977921,306.852478 
	C202.173767,306.852478 200.624664,306.852478 198.450775,306.852478 
	C199.264511,304.031921 200.029495,301.380371 201.182556,297.383667 
	C201.786896,299.414917 201.982651,300.072876 202.279816,301.085083 
z"/>
<path fill="#1C1C1C" opacity="1.000000" stroke="none" 
	d="
M268.318970,167.980209 
	C268.318970,167.980209 268.618134,167.936737 268.776489,168.318665 
	C269.278442,170.041275 269.622101,171.381958 269.965698,172.722641 
	C270.309998,175.491684 270.654266,178.260712 270.988098,181.520569 
	C270.977661,182.011383 270.779358,182.187943 270.779358,182.187943 
	C268.285431,180.671448 265.791504,179.154953 263.171936,176.965698 
	C262.718079,174.248627 262.389832,172.204315 262.256226,169.826859 
	C262.534241,168.976196 262.617676,168.458694 262.701111,167.941162 
	C263.465881,168.297577 264.230652,168.653992 265.201691,169.285965 
	C266.159058,170.024979 266.910156,170.488403 267.849335,171.067871 
	C268.040833,169.808716 268.179901,168.894455 268.318970,167.980209 
M266.450073,172.269974 
	C266.348358,172.336624 266.246643,172.403275 266.144928,172.469940 
	C266.226013,172.560379 266.299194,172.712250 266.390442,172.724030 
	C266.482178,172.735901 266.591980,172.608368 266.450073,172.269974 
M263.428802,170.826889 
	C263.548431,170.725906 263.668060,170.624924 263.787659,170.523926 
	C263.675354,170.415009 263.565735,170.223999 263.449982,170.220215 
	C263.333588,170.216415 263.211121,170.398911 263.428802,170.826889 
z"/>
<path fill="#B4B2B2" opacity="1.000000" stroke="none" 
	d="
M264.995453,169.010406 
	C264.230652,168.653992 263.465881,168.297577 262.701111,167.941162 
	C262.617676,168.458694 262.534241,168.976196 261.992371,169.667816 
	C260.723236,169.223663 259.912628,168.605377 259.101990,167.987106 
	C258.056091,165.677505 257.035217,163.356079 255.952881,161.063675 
	C255.467957,160.036575 254.859787,159.067627 254.307556,158.072281 
	C254.665588,157.773834 255.023636,157.475372 255.381668,157.176910 
	C258.449860,159.596786 261.518036,162.016663 264.753113,165.098297 
	C264.945160,166.843491 264.970306,167.926956 264.995453,169.010406 
z"/>
<path fill="#3B3A3A" opacity="1.000000" stroke="none" 
	d="
M269.089325,201.981750 
	C270.989899,202.335144 272.928528,202.575150 274.743256,203.184280 
	C274.972260,203.261169 274.823425,205.411072 274.360016,206.361847 
	C273.789246,207.532852 272.705017,208.453568 271.091858,210.378281 
	C270.309723,209.878403 268.406647,208.662170 266.336029,206.852066 
	C266.123779,205.504181 266.079102,204.750168 266.356323,203.983475 
	C267.481934,203.307785 268.285645,202.644760 269.089325,201.981750 
z"/>
<path fill="#3B3A3A" opacity="1.000000" stroke="none" 
	d="
M258.810303,168.077423 
	C259.912628,168.605377 260.723236,169.223663 261.797729,170.000977 
	C262.389832,172.204315 262.718079,174.248627 263.025391,176.700653 
	C262.027618,175.518143 261.050720,173.927887 260.261688,172.643402 
	C260.226898,172.738907 259.917053,173.589661 259.412811,174.974197 
	C259.019318,173.453934 258.759766,172.451096 258.512817,171.497101 
	C254.486282,173.304489 253.675400,171.480179 254.046005,168.412430 
	C255.677032,168.323196 257.097809,168.245468 258.810303,168.077423 
z"/>
<path fill="#908F8F" opacity="1.000000" stroke="none" 
	d="
M244.930634,218.862885 
	C244.932175,221.639114 244.932175,223.937653 244.932175,226.236206 
	C244.710602,226.235001 244.489044,226.233795 244.267471,226.232574 
	C244.267471,213.710464 244.267471,201.188339 244.267471,188.666229 
	C244.488007,188.664429 244.708557,188.662613 244.929092,188.660812 
	C244.929092,198.568954 244.929092,208.477081 244.930634,218.862885 
z"/>
<path fill="#3B3A3A" opacity="1.000000" stroke="none" 
	d="
M258.028503,199.071030 
	C256.858673,197.971420 255.688843,196.871826 253.551895,194.863174 
	C257.314697,193.672577 259.750214,196.262650 262.692139,197.334412 
	C263.645721,199.129272 264.315186,200.472366 265.003784,202.137985 
	C264.984283,202.889236 264.945618,203.317978 264.597778,203.664825 
	C262.201874,202.078964 260.115204,200.574997 258.028503,199.071030 
z"/>
<path fill="#B4B2B2" opacity="1.000000" stroke="none" 
	d="
M257.745514,199.264465 
	C260.115204,200.574997 262.201874,202.078964 264.871887,203.762238 
	C265.648285,203.959763 265.841339,203.977951 266.034393,203.996140 
	C266.079102,204.750168 266.123779,205.504181 266.078674,206.625732 
	C263.166718,205.968674 260.212799,205.182953 257.615509,203.750549 
	C256.971313,203.395264 257.482452,200.945114 257.745514,199.264465 
z"/>
<path fill="#D4D2D2" opacity="1.000000" stroke="none" 
	d="
M265.337097,237.628815 
	C262.397888,237.560181 259.748657,237.581085 257.285797,236.913940 
	C256.135101,236.602249 255.344910,234.959824 254.391327,233.920532 
	C254.721451,233.607513 255.051575,233.294479 255.381699,232.981461 
	C258.443634,233.785049 261.530426,234.510147 264.544525,235.464783 
	C265.084778,235.635895 265.324799,236.755096 265.337097,237.628815 
z"/>
<path fill="#D4D2D2" opacity="1.000000" stroke="none" 
	d="
M262.322327,231.818878 
	C260.531342,230.934555 259.143829,230.109222 257.756317,229.283875 
	C258.006653,228.697891 258.256989,228.111893 258.507324,227.525909 
	C262.227295,228.632599 265.947266,229.739288 269.667236,230.845963 
	C269.478271,231.604538 269.289337,232.363098 269.100372,233.121658 
	C266.975494,232.707062 264.850647,232.292465 262.322327,231.818878 
z"/>
<path fill="#D4D2D2" opacity="1.000000" stroke="none" 
	d="
M262.966309,183.093292 
	C264.681549,184.151169 266.396790,185.209030 268.191956,186.934784 
	C267.711823,188.381073 267.151794,189.159485 266.407715,189.657913 
	C265.490784,188.886337 264.757965,188.394730 264.005981,187.580551 
	C263.662323,186.848953 263.337799,186.439911 262.969055,185.665558 
	C262.938629,184.564590 262.952484,183.828934 262.966309,183.093292 
z"/>
<path fill="#D4D2D2" opacity="1.000000" stroke="none" 
	d="
M265.026886,193.844818 
	C263.477356,193.079239 261.927826,192.313675 260.125916,190.926117 
	C260.270782,189.493958 260.668030,188.683792 261.348297,187.998413 
	C262.342010,188.538330 263.052704,188.953476 263.846069,189.585846 
	C264.138275,190.074249 264.413147,190.189865 264.859192,190.316864 
	C264.964996,190.483826 265.029480,190.873810 265.025055,191.245346 
	C265.022736,192.359528 265.024811,193.102173 265.026886,193.844818 
z"/>
<path fill="#F0EEEE" opacity="1.000000" stroke="none" 
	d="
M270.302765,172.868271 
	C269.622101,171.381958 269.278442,170.041275 268.926575,168.336578 
	C271.861633,168.366013 273.383606,169.907990 272.778900,172.974747 
	C272.749756,173.122635 271.383423,173.006882 270.302765,172.868271 
z"/>
<path fill="#D4D2D2" opacity="1.000000" stroke="none" 
	d="
M260.048401,212.919922 
	C260.053101,205.799118 264.016235,212.717972 265.623108,211.829926 
	C265.352814,212.963318 265.100464,213.609894 264.509033,214.128418 
	C262.796082,213.640213 261.422241,213.280060 260.048401,212.919922 
z"/>
<path fill="#F0EEEE" opacity="1.000000" stroke="none" 
	d="
M273.191620,191.046646 
	C273.126556,191.471085 273.061462,191.895538 272.558502,192.423569 
	C271.752899,192.658463 271.385193,192.789780 271.010803,192.954895 
	C271.004089,192.988693 271.067291,192.961212 271.218506,192.581955 
	C270.602814,190.482239 269.835846,188.761795 269.068878,187.041351 
	C270.316895,187.821869 271.564911,188.602371 272.911591,189.953613 
	C273.070740,190.698441 273.131195,190.872543 273.191620,191.046646 
z"/>
<path fill="#605F5F" opacity="1.000000" stroke="none" 
	d="
M266.356323,203.983475 
	C265.841339,203.977951 265.648285,203.959763 265.181091,203.844131 
	C264.945618,203.317978 264.984283,202.889236 265.003052,201.775940 
	C265.012878,200.364792 265.042603,199.638214 265.072357,198.911636 
	C265.903351,199.276062 266.734375,199.640472 267.983032,200.076447 
	C268.400665,200.148010 268.667419,200.196320 268.667419,200.196320 
	C268.745819,200.597000 268.824219,200.997696 268.995972,201.690063 
	C268.285645,202.644760 267.481934,203.307785 266.356323,203.983475 
z"/>
<path fill="#D4D2D2" opacity="1.000000" stroke="none" 
	d="
M265.201691,169.285980 
	C264.970306,167.926956 264.945160,166.843491 264.965942,165.355621 
	C266.052887,165.735336 267.093903,166.519470 268.226929,167.641907 
	C268.179901,168.894455 268.040833,169.808716 267.849335,171.067871 
	C266.910156,170.488403 266.159058,170.024979 265.201691,169.285980 
z"/>
<path fill="#D4D2D2" opacity="1.000000" stroke="none" 
	d="
M272.960052,195.008575 
	C272.831329,195.889725 272.702606,196.770874 272.459106,198.437927 
	C270.831360,197.090546 269.690186,196.145920 268.246155,194.686279 
	C267.991180,193.725906 268.039062,193.280518 268.456726,192.912918 
	C269.573425,192.980865 270.320374,192.971039 271.067291,192.961212 
	C271.067291,192.961212 271.004089,192.988693 271.020813,193.261826 
	C271.678406,194.026169 272.319214,194.517365 272.960052,195.008575 
z"/>
<path fill="#F2F0F0" opacity="1.000000" stroke="none" 
	d="
M262.738708,182.784271 
	C262.952484,183.828934 262.938629,184.564590 262.896698,185.967804 
	C262.269226,186.723434 261.669861,186.811523 261.080353,186.941772 
	C261.090240,186.983917 261.173553,186.960312 261.173553,186.960312 
	C260.780670,185.493973 260.387817,184.027618 259.994965,182.561279 
	C260.833679,182.532608 261.672394,182.503922 262.738708,182.784271 
z"/>
<path fill="#747373" opacity="1.000000" stroke="none" 
	d="
M264.537323,219.147690 
	C263.465668,218.982147 262.394012,218.816605 261.143707,218.027069 
	C261.004272,216.677567 261.043457,215.952057 261.393738,215.227936 
	C262.799042,215.747543 263.893250,216.265778 264.860168,217.167496 
	C264.667725,218.083221 264.602539,218.615448 264.537323,219.147690 
z"/>
<path fill="#3B3A3A" opacity="1.000000" stroke="none" 
	d="
M264.987457,216.784012 
	C263.893250,216.265778 262.799042,215.747543 261.181976,215.083679 
	C260.447174,214.679291 260.235260,214.420532 260.023346,214.161774 
	C260.038788,213.955032 260.054260,213.748276 260.059082,213.230713 
	C261.422241,213.280060 262.796082,213.640213 264.673523,214.377426 
	C266.083313,215.131943 266.989532,215.509399 268.000549,216.003448 
	C268.105347,216.120041 268.311859,216.355972 268.311859,216.355972 
	C268.134735,216.581055 267.957642,216.806122 267.278687,217.205383 
	C266.180328,217.181046 265.583893,216.982529 264.987457,216.784012 
z"/>
<path fill="#3B3A3A" opacity="1.000000" stroke="none" 
	d="
M271.218506,192.581970 
	C270.320374,192.971039 269.573425,192.980865 268.332031,192.620026 
	C266.901520,191.790848 265.965485,191.332336 265.029480,190.873810 
	C265.029480,190.873810 264.964996,190.483826 265.315643,190.236023 
	C265.974792,189.971436 266.283264,189.954651 266.591766,189.937881 
	C267.151794,189.159485 267.711823,188.381073 268.326843,187.255280 
	C268.381836,186.907898 268.749664,186.849457 268.909271,186.945404 
	C269.835846,188.761795 270.602814,190.482239 271.218506,192.581970 
z"/>
<path fill="#3B3A3A" opacity="1.000000" stroke="none" 
	d="
M267.781982,212.137680 
	C269.105896,212.730026 270.429779,213.322388 272.189117,214.109558 
	C270.757660,214.939407 269.807007,215.490509 268.584106,216.198792 
	C268.311859,216.355972 268.105347,216.120041 268.037292,215.628143 
	C267.906799,214.136734 267.844391,213.137207 267.781982,212.137680 
z"/>
<path fill="#F2F0F0" opacity="1.000000" stroke="none" 
	d="
M264.860168,217.167496 
	C265.583893,216.982529 266.180328,217.181046 267.037964,217.561188 
	C267.544586,218.740631 267.790039,219.738464 268.202362,221.414764 
	C266.639404,220.606140 265.797180,220.170410 264.746124,219.441193 
	C264.602539,218.615448 264.667725,218.083221 264.860168,217.167496 
z"/>
<path fill="#747373" opacity="1.000000" stroke="none" 
	d="
M256.869019,189.138260 
	C255.746078,188.368088 254.789551,187.300797 253.833023,186.233521 
	C254.375854,185.889206 254.918686,185.544876 255.461517,185.200546 
	C255.986145,186.414078 256.510773,187.627625 256.869019,189.138260 
z"/>
<path fill="#FBF9F9" opacity="1.000000" stroke="none" 
	d="
M263.008423,223.917511 
	C262.601654,224.935837 262.118530,225.560486 261.635437,226.185150 
	C261.099731,225.550903 260.563995,224.916626 260.028290,224.282349 
	C260.996216,224.029526 261.964172,223.776703 263.008423,223.917511 
z"/>
<path fill="#F2F0F0" opacity="1.000000" stroke="none" 
	d="
M265.025055,191.245346 
	C265.965485,191.332336 266.901520,191.790848 267.962250,192.542267 
	C268.039062,193.280518 267.991180,193.725906 267.957703,194.507690 
	C267.171570,194.632141 266.371094,194.420181 265.298737,194.026520 
	C265.024811,193.102173 265.022736,192.359528 265.025055,191.245346 
z"/>
<path fill="#F8F6F6" opacity="1.000000" stroke="none" 
	d="
M267.511505,212.095245 
	C267.844391,213.137207 267.906799,214.136734 267.932465,215.511566 
	C266.989532,215.509399 266.083313,215.131943 265.012634,214.505478 
	C265.100464,213.609894 265.352814,212.963318 265.883057,212.105072 
	C266.520966,211.946548 266.881012,211.999680 267.511505,212.095245 
z"/>
<path fill="#747373" opacity="1.000000" stroke="none" 
	d="
M261.065247,187.873627 
	C260.668030,188.683792 260.270782,189.493958 259.901978,190.684937 
	C259.236389,190.166748 258.542328,189.267700 257.848297,188.368683 
	C258.673187,187.909119 259.498077,187.449570 260.748230,186.975159 
	C261.173553,186.960312 261.090240,186.983917 261.042297,187.185089 
	C260.994385,187.386261 261.065277,187.873642 261.065247,187.873627 
z"/>
<path fill="#605F5F" opacity="1.000000" stroke="none" 
	d="
M259.677307,214.124374 
	C260.235260,214.420532 260.447174,214.679291 260.870911,215.082306 
	C261.043457,215.952057 261.004272,216.677567 260.945374,217.768234 
	C260.394226,216.784592 259.862762,215.435776 259.677307,214.124374 
z"/>
<path fill="#908F8F" opacity="1.000000" stroke="none" 
	d="
M264.963104,198.645462 
	C265.042603,199.638214 265.012878,200.364792 264.983887,201.453415 
	C264.315186,200.472366 263.645721,199.129272 263.021851,197.420044 
	C263.662903,197.495697 264.258362,197.937485 264.963104,198.645462 
z"/>
<path fill="#3B3A3A" opacity="1.000000" stroke="none" 
	d="
M273.217743,194.857925 
	C272.319214,194.517365 271.678406,194.026169 271.027527,193.228027 
	C271.385193,192.789780 271.752899,192.658463 272.417480,192.713104 
	C272.968048,193.501801 273.221741,194.104538 273.217743,194.857925 
z"/>
<path fill="#1C1C1C" opacity="1.000000" stroke="none" 
	d="
M271.071167,181.917114 
	C271.595459,182.337112 272.026276,182.851364 272.457062,183.365631 
	C271.963806,183.150818 271.470520,182.936005 270.878296,182.454575 
	C270.779358,182.187943 270.977661,182.011383 271.071167,181.917114 
z"/>
<path fill="#1C1C1C" opacity="1.000000" stroke="none" 
	d="
M272.641846,178.720749 
	C272.625366,178.993225 272.478485,179.142395 272.331635,179.291565 
	C272.391571,179.060196 272.451538,178.828827 272.641846,178.720749 
z"/>
<path fill="#3B3A3A" opacity="1.000000" stroke="none" 
	d="
M273.420532,191.006226 
	C273.131195,190.872543 273.070740,190.698441 273.047058,190.250336 
	C273.500977,190.134598 273.918152,190.292862 274.335297,190.451126 
	C274.106659,190.622681 273.878052,190.794235 273.420532,191.006226 
z"/>
<path fill="#3B3A3A" opacity="1.000000" stroke="none" 
	d="
M268.703735,200.003235 
	C268.667419,200.196320 268.400665,200.148010 268.266907,200.134201 
	C268.335449,200.016983 268.537781,199.913574 268.703735,200.003235 
z"/>
<path fill="#605F5F" opacity="1.000000" stroke="none" 
	d="
M266.571960,172.405945 
	C266.591980,172.608368 266.482178,172.735901 266.390442,172.724030 
	C266.299194,172.712250 266.226013,172.560379 266.144928,172.469940 
	C266.246643,172.403275 266.348358,172.336624 266.571960,172.405945 
z"/>
<path fill="#B4B2B2" opacity="1.000000" stroke="none" 
	d="
M263.260040,170.663330 
	C263.211121,170.398911 263.333588,170.216415 263.449982,170.220215 
	C263.565735,170.223999 263.675354,170.415009 263.787659,170.523926 
	C263.668060,170.624924 263.548431,170.725906 263.260040,170.663330 
z"/>
<path fill="#3B3A3A" opacity="1.000000" stroke="none" 
	d="
M261.348328,187.998413 
	C261.065277,187.873642 260.994385,187.386261 261.032410,187.142944 
	C261.669861,186.811523 262.269226,186.723434 262.940979,186.333130 
	C263.337799,186.439911 263.662323,186.848953 263.952515,187.949066 
	C263.866547,188.882980 263.814941,189.125809 263.763367,189.368622 
	C263.052704,188.953476 262.342010,188.538330 261.348328,187.998413 
z"/>
<path fill="#1C1C1C" opacity="1.000000" stroke="none" 
	d="
M263.846069,189.585846 
	C263.814941,189.125809 263.866547,188.882980 263.971649,188.271637 
	C264.757965,188.394730 265.490784,188.886337 266.407715,189.657913 
	C266.283264,189.954651 265.974792,189.971436 265.209839,190.069061 
	C264.413147,190.189865 264.138275,190.074249 263.846069,189.585846 
z"/>
</svg>